<?xml version="1.0" standalone="no"?>
<!DOCTYPE svg PUBLIC "-//W3C//DTD SVG 20010904//EN"
 "http://www.w3.org/TR/2001/REC-SVG-20010904/DTD/svg10.dtd">
<svg version="1.0" xmlns="http://www.w3.org/2000/svg"
 width="769.000000pt" height="513.000000pt" viewBox="0 0 769.000000 513.000000"
 preserveAspectRatio="xMidYMid meet">

<g transform="translate(0.000000,513.000000) scale(0.100000,-0.100000)"
fill="#000000" stroke="none">
<path d="M5395 3876 c-338 -53 -569 -237 -631 -502 -24 -104 -15 -297 17 -384
49 -131 164 -265 306 -359 43 -29 211 -118 373 -198 295 -146 295 -146 376
-227 94 -94 118 -147 117 -256 -1 -146 -90 -255 -253 -310 -214 -72 -579 -23
-850 115 -29 15 -54 25 -56 23 -9 -9 -104 -354 -100 -364 6 -17 140 -70 247
-99 192 -51 329 -69 539 -69 219 -1 301 12 452 68 122 46 191 90 279 176 128
127 188 280 189 476 0 175 -52 308 -171 438 -94 102 -173 152 -489 311 -296
149 -397 211 -461 283 -62 70 -83 123 -83 212 -1 186 115 287 360 315 135 15
431 -46 588 -121 28 -13 53 -21 57 -17 11 13 100 344 94 353 -10 17 -157 71
-257 95 -218 52 -468 68 -643 41z"/>
<path d="M1899 3823 c-52 -135 -919 -2517 -919 -2524 0 -5 95 -9 223 -9 l223
0 371 1072 c242 701 375 1073 384 1073 9 0 140 -370 380 -1070 l366 -1070 243
-3 c139 -1 240 1 238 7 -1 4 -212 581 -468 1280 l-464 1271 -283 0 -283 0 -11
-27z"/>
<path d="M3730 2570 l0 -1280 215 0 215 0 0 1280 0 1280 -215 0 -215 0 0
-1280z"/>
<path d="M1755 1281 c-3 -5 -30 -80 -60 -165 l-54 -156 534 0 c300 0 535 4
535 9 0 5 -24 78 -54 162 l-54 154 -420 3 c-257 1 -423 -1 -427 -7z"/>
</g>
</svg>
